<svg xmlns="http://www.w3.org/2000/svg" viewBox="0 0 48 48" fill="none">
  <!-- Shield base -->
  <path d="M24 4L6 11v12c0 10.5 7.7 20.3 18 22.7C34.3 43.3 42 33.5 42 23V11L24 4z"
    fill="#1D4ED8" opacity="0.15"/>
  <path d="M24 4L6 11v12c0 10.5 7.7 20.3 18 22.7C34.3 43.3 42 33.5 42 23V11L24 4z"
    stroke="#1D4ED8" stroke-width="2" stroke-linejoin="round"/>
  <!-- Bar chart inside shield -->
  <rect x="13" y="28" width="5" height="8" rx="1" fill="#1D4ED8"/>
  <rect x="21.5" y="22" width="5" height="14" rx="1" fill="#3B82F6"/>
  <rect x="30" y="18" width="5" height="18" rx="1" fill="#60A5FA"/>
  <!-- Upward trend line -->
  <polyline points="15.5,27 24,21 32.5,17"
    stroke="#BFDBFE" stroke-width="1.5" stroke-linecap="round" stroke-linejoin="round"/>
  <circle cx="32.5" cy="17" r="1.5" fill="#BFDBFE"/>
</svg>
